<?xml version="1.0" encoding="UTF-8"?>
<svg width="32px" height="32px" viewBox="0 0 32 32" version="1.1" xmlns="http://www.w3.org/2000/svg" xmlns:xlink="http://www.w3.org/1999/xlink">
    <title>factory</title>
    <g id="RBK-Group---webdesign" stroke="none" stroke-width="1" fill="none" fill-rule="evenodd" stroke-linecap="round" stroke-linejoin="round">
        <g id="RBK-Group---website-design---1---homepage-3.0" transform="translate(-255.000000, -752.000000)" stroke-width="2">
            <g id="header" transform="translate(0.000000, 80.000000)">
                <g id="service" transform="translate(180.000000, 647.000000)">
                    <g id="factory" transform="translate(76.000000, 26.000000)">
                        <polygon id="Path" stroke="#FFFFFF" points="20 18 20 10 9 18 6 10 0 10 0 30 30 30 30 10"></polygon>
                        <path d="M14,1 C12.728,1 11.579,1.49 10.697,2.273 C9.598,0.89 7.904,0 6,0 C2.686,0 0,2.686 0,6 L19,6 C19,3.239 16.761,1 14,1 Z" id="Path" stroke="#A6CE39"></path>
                        <line x1="25" y1="24" x2="23" y2="24" id="Path" stroke="#A6CE39"></line>
                        <line x1="18" y1="24" x2="16" y2="24" id="Path" stroke="#A6CE39"></line>
                    </g>
                </g>
            </g>
        </g>
    </g>
</svg>